<mxfile host="app.diagrams.net" agent="Mozilla/5.0 (Windows NT 10.0; Win64; x64) AppleWebKit/537.36 (KHTML, like Gecko) Chrome/129.0.0.0 Safari/537.36" version="24.7.17">
  <diagram name="第 1 页" id="RjVzaeUCA1FVjtOJRavQ">
    <mxGraphModel dx="1562" dy="810" grid="1" gridSize="10" guides="1" tooltips="1" connect="1" arrows="1" fold="1" page="1" pageScale="1" pageWidth="827" pageHeight="1169" math="0" shadow="0">
      <root>
        <mxCell id="0" />
        <mxCell id="1" parent="0" />
        <mxCell id="9FCVhNLPNg4FzbE_gv2B-3" value="" style="edgeStyle=orthogonalEdgeStyle;rounded=0;orthogonalLoop=1;jettySize=auto;html=1;" edge="1" parent="1" source="9FCVhNLPNg4FzbE_gv2B-1" target="9FCVhNLPNg4FzbE_gv2B-2">
          <mxGeometry relative="1" as="geometry" />
        </mxCell>
        <mxCell id="9FCVhNLPNg4FzbE_gv2B-1" value="开始" style="strokeWidth=2;html=1;shape=mxgraph.flowchart.start_1;whiteSpace=wrap;" vertex="1" parent="1">
          <mxGeometry x="90" y="340" width="100" height="60" as="geometry" />
        </mxCell>
        <mxCell id="9FCVhNLPNg4FzbE_gv2B-5" value="" style="edgeStyle=orthogonalEdgeStyle;rounded=0;orthogonalLoop=1;jettySize=auto;html=1;" edge="1" parent="1" source="9FCVhNLPNg4FzbE_gv2B-2" target="9FCVhNLPNg4FzbE_gv2B-4">
          <mxGeometry relative="1" as="geometry" />
        </mxCell>
        <mxCell id="9FCVhNLPNg4FzbE_gv2B-2" value="添加模板" style="whiteSpace=wrap;html=1;strokeWidth=2;" vertex="1" parent="1">
          <mxGeometry x="260" y="340" width="120" height="60" as="geometry" />
        </mxCell>
        <mxCell id="9FCVhNLPNg4FzbE_gv2B-7" value="" style="edgeStyle=orthogonalEdgeStyle;rounded=0;orthogonalLoop=1;jettySize=auto;html=1;exitX=1;exitY=0.5;exitDx=0;exitDy=0;" edge="1" parent="1" source="9FCVhNLPNg4FzbE_gv2B-2" target="9FCVhNLPNg4FzbE_gv2B-6">
          <mxGeometry relative="1" as="geometry" />
        </mxCell>
        <mxCell id="9FCVhNLPNg4FzbE_gv2B-9" value="" style="edgeStyle=orthogonalEdgeStyle;rounded=0;orthogonalLoop=1;jettySize=auto;html=1;" edge="1" parent="1" source="9FCVhNLPNg4FzbE_gv2B-4" target="9FCVhNLPNg4FzbE_gv2B-8">
          <mxGeometry relative="1" as="geometry" />
        </mxCell>
        <mxCell id="9FCVhNLPNg4FzbE_gv2B-4" value="安装应用" style="whiteSpace=wrap;html=1;strokeWidth=2;" vertex="1" parent="1">
          <mxGeometry x="260" y="480" width="120" height="60" as="geometry" />
        </mxCell>
        <mxCell id="9FCVhNLPNg4FzbE_gv2B-10" style="edgeStyle=orthogonalEdgeStyle;rounded=0;orthogonalLoop=1;jettySize=auto;html=1;exitX=0.5;exitY=1;exitDx=0;exitDy=0;entryX=1;entryY=0.5;entryDx=0;entryDy=0;" edge="1" parent="1" source="9FCVhNLPNg4FzbE_gv2B-6" target="9FCVhNLPNg4FzbE_gv2B-8">
          <mxGeometry relative="1" as="geometry" />
        </mxCell>
        <mxCell id="9FCVhNLPNg4FzbE_gv2B-6" value="更新应用" style="whiteSpace=wrap;html=1;strokeWidth=2;" vertex="1" parent="1">
          <mxGeometry x="460" y="480" width="120" height="60" as="geometry" />
        </mxCell>
        <mxCell id="9FCVhNLPNg4FzbE_gv2B-12" value="" style="edgeStyle=orthogonalEdgeStyle;rounded=0;orthogonalLoop=1;jettySize=auto;html=1;" edge="1" parent="1" source="9FCVhNLPNg4FzbE_gv2B-8" target="9FCVhNLPNg4FzbE_gv2B-11">
          <mxGeometry relative="1" as="geometry" />
        </mxCell>
        <mxCell id="9FCVhNLPNg4FzbE_gv2B-8" value="填写表单内容" style="whiteSpace=wrap;html=1;strokeWidth=2;" vertex="1" parent="1">
          <mxGeometry x="260" y="620" width="120" height="60" as="geometry" />
        </mxCell>
        <mxCell id="9FCVhNLPNg4FzbE_gv2B-14" value="" style="edgeStyle=orthogonalEdgeStyle;rounded=0;orthogonalLoop=1;jettySize=auto;html=1;" edge="1" parent="1" source="9FCVhNLPNg4FzbE_gv2B-11" target="9FCVhNLPNg4FzbE_gv2B-13">
          <mxGeometry relative="1" as="geometry" />
        </mxCell>
        <mxCell id="9FCVhNLPNg4FzbE_gv2B-11" value="生成yaml文件" style="whiteSpace=wrap;html=1;strokeWidth=2;" vertex="1" parent="1">
          <mxGeometry x="260" y="760" width="120" height="60" as="geometry" />
        </mxCell>
        <mxCell id="9FCVhNLPNg4FzbE_gv2B-16" value="" style="edgeStyle=orthogonalEdgeStyle;rounded=0;orthogonalLoop=1;jettySize=auto;html=1;" edge="1" parent="1" source="9FCVhNLPNg4FzbE_gv2B-13" target="9FCVhNLPNg4FzbE_gv2B-15">
          <mxGeometry relative="1" as="geometry" />
        </mxCell>
        <mxCell id="9FCVhNLPNg4FzbE_gv2B-13" value="应用yaml文件" style="whiteSpace=wrap;html=1;strokeWidth=2;" vertex="1" parent="1">
          <mxGeometry x="260" y="900" width="120" height="60" as="geometry" />
        </mxCell>
        <mxCell id="9FCVhNLPNg4FzbE_gv2B-15" value="" style="whiteSpace=wrap;html=1;strokeWidth=2;" vertex="1" parent="1">
          <mxGeometry x="260" y="1040" width="120" height="60" as="geometry" />
        </mxCell>
      </root>
    </mxGraphModel>
  </diagram>
</mxfile>
